HIERARCHY
ROOT hip
{
  OFFSET 0 0 0
  CHANNELS 6 Xposition Yposition Zposition Zrotation Yrotation Xrotation
  JOINT abdomen
  {
    OFFSET 0 20.6881 -0.73152
    CHANNELS 3 Zrotation Xrotation Yrotation
    JOINT chest
    {
      OFFSET 0 11.7043 -0.48768
      CHANNELS 3 Zrotation Xrotation Yrotation
      JOINT neck
      {
        OFFSET 0 22.1894 -2.19456
        CHANNELS 3 Zrotation Xrotation Yrotation
        JOINT head
        {
          OFFSET -0.24384 7.07133 1.2192
          CHANNELS 3 Zrotation Xrotation Yrotation
          JOINT leftEye
          {
            OFFSET 4.14528 8.04674 8.04672
            CHANNELS 3 Zrotation Xrotation Yrotation
            End Site
            {
              OFFSET 1 0 0
            }
          }
          JOINT rightEye
          {
            OFFSET -3.6576 8.04674 8.04672
            CHANNELS 3 Zrotation Xrotation Yrotation
            End Site
            {
              OFFSET 1 0 0
            }
          }
        }
      }
      JOINT rCollar
      {
        OFFSET -2.68224 19.2634 -4.8768
        CHANNELS 3 Zrotation Xrotation Yrotation
        JOINT rShldr
        {
          OFFSET -8.77824 -1.95073 1.46304
          CHANNELS 3 Zrotation Xrotation Yrotation
          JOINT rForeArm
          {
            OFFSET -28.1742 -1.7115 0.48768
            CHANNELS 3 Zrotation Xrotation Yrotation
            JOINT rHand
            {
              OFFSET -22.5879 0.773209 7.07136
              CHANNELS 3 Zrotation Xrotation Yrotation
              JOINT rThumb1
              {
                OFFSET -1.2192 -0.487915 3.41376
                CHANNELS 3 Zrotation Xrotation Yrotation
                JOINT rThumb2
                {
                  OFFSET -3.37035 -0.52449 3.41376
                  CHANNELS 3 Zrotation Xrotation Yrotation
                  End Site
                  {
                    OFFSET -1.78271 -1.18214 1.43049
                  }
                }
              }
              JOINT rIndex1
              {
                OFFSET -7.75947 0.938293 5.60832
                CHANNELS 3 Zrotation Xrotation Yrotation
                JOINT rIndex2
                {
                  OFFSET -2.54057 -0.884171 1.56538
                  CHANNELS 3 Zrotation Xrotation Yrotation
                  End Site
                  {
                    OFFSET -1.62519 -0.234802 1.16502
                  }
                }
              }
              JOINT rMid1
              {
                OFFSET -8.24714 1.18213 3.41376
                CHANNELS 3 Zrotation Xrotation Yrotation
                JOINT rMid2
                {
                  OFFSET -3.10165 -0.590103 1.0647
                  CHANNELS 3 Zrotation Xrotation Yrotation
                  End Site
                  {
                    OFFSET -2.48547 -0.328903 0.83742
                  }
                }
              }
              JOINT rRing1
              {
                OFFSET -8.82822 0.546677 1.51678
                CHANNELS 3 Zrotation Xrotation Yrotation
                JOINT rRing2
                {
                  OFFSET -2.60934 -0.819778 -0.0198488
                  CHANNELS 3 Zrotation Xrotation Yrotation
                  End Site
                  {
                    OFFSET -2.33842 -0.294052 0.168128
                  }
                }
              }
              JOINT rPinky1
              {
                OFFSET -8.27202 -0.0477905 -0.4584
                CHANNELS 3 Zrotation Xrotation Yrotation
                JOINT rPinky2
                {
                  OFFSET -1.82734 -0.647385 -0.700984
                  CHANNELS 3 Zrotation Xrotation Yrotation
                  End Site
                  {
                    OFFSET -1.69225 -0.51767 -0.607171
                  }
                }
              }
            }
          }
        }
      }
      JOINT lCollar
      {
        OFFSET 2.68224 19.2634 -4.8768
        CHANNELS 3 Zrotation Xrotation Yrotation
        JOINT lShldr
        {
          OFFSET 8.77824 -1.95073 1.46304
          CHANNELS 3 Zrotation Xrotation Yrotation
          JOINT lForeArm
          {
            OFFSET 28.1742 -1.7115 0.48768
            CHANNELS 3 Zrotation Xrotation Yrotation
            JOINT lHand
            {
              OFFSET 22.5879 0.773209 7.07136
              CHANNELS 3 Zrotation Xrotation Yrotation
              JOINT lThumb1
              {
                OFFSET 1.2192 -0.487915 3.41376
                CHANNELS 3 Zrotation Xrotation Yrotation
                JOINT lThumb2
                {
                  OFFSET 3.37035 -0.52449 3.41376
                  CHANNELS 3 Zrotation Xrotation Yrotation
                  End Site
                  {
                    OFFSET 1.78271 -1.18214 1.43049
                  }
                }
              }
              JOINT lIndex1
              {
                OFFSET 7.75947 0.938293 5.60832
                CHANNELS 3 Zrotation Xrotation Yrotation
                JOINT lIndex2
                {
                  OFFSET 2.54057 -0.884171 1.56538
                  CHANNELS 3 Zrotation Xrotation Yrotation
                  End Site
                  {
                    OFFSET 1.62519 -0.234802 1.16502
                  }
                }
              }
              JOINT lMid1
              {
                OFFSET 8.24714 1.18213 3.41376
                CHANNELS 3 Zrotation Xrotation Yrotation
                JOINT lMid2
                {
                  OFFSET 3.10165 -0.590103 1.0647
                  CHANNELS 3 Zrotation Xrotation Yrotation
                  End Site
                  {
                    OFFSET 2.48547 -0.328903 0.83742
                  }
                }
              }
              JOINT lRing1
              {
                OFFSET 8.82822 0.546677 1.51678
                CHANNELS 3 Zrotation Xrotation Yrotation
                JOINT lRing2
                {
                  OFFSET 2.60934 -0.819778 -0.0198488
                  CHANNELS 3 Zrotation Xrotation Yrotation
                  End Site
                  {
                    OFFSET 2.33842 -0.294052 0.168128
                  }
                }
              }
              JOINT lPinky1
              {
                OFFSET 8.27202 -0.0477905 -0.4584
                CHANNELS 3 Zrotation Xrotation Yrotation
                JOINT lPinky2
                {
                  OFFSET 1.82734 -0.647385 -0.700984
                  CHANNELS 3 Zrotation Xrotation Yrotation
                  End Site
                  {
                    OFFSET 1.69225 -0.51767 -0.607171
                  }
                }
              }
            }
          }
        }
      }
    }
  }
  JOINT rButtock
  {
    OFFSET -8.77824 4.35084 1.2192
    CHANNELS 3 Zrotation Xrotation Yrotation
    JOINT rThigh
    {
      OFFSET 0 -1.70687 -2.19456
      CHANNELS 3 Zrotation Xrotation Yrotation
      JOINT rShin
      {
        OFFSET 0 -36.8199 0.73152
        CHANNELS 3 Zrotation Xrotation Yrotation
        JOINT rFoot
        {
          OFFSET 0.73152 -45.1104 -5.12064
          CHANNELS 3 Zrotation Xrotation Yrotation
          End Site
          {
            OFFSET -1.1221 -3.69964 12.103
          }
        }
      }
    }
  }
  JOINT lButtock
  {
    OFFSET 8.77824 4.35084 1.2192
    CHANNELS 3 Zrotation Xrotation Yrotation
    JOINT lThigh
    {
      OFFSET 0 -1.70687 -2.19456
      CHANNELS 3 Zrotation Xrotation Yrotation
      JOINT lShin
      {
        OFFSET 0 -36.8199 0.73152
        CHANNELS 3 Zrotation Xrotation Yrotation
        JOINT lFoot
        {
          OFFSET -0.73152 -45.1104 -5.12064
          CHANNELS 3 Zrotation Xrotation Yrotation
          End Site
          {
            OFFSET 1.1221 -3.69964 12.103
          }
        }
      }
    }
  }
}
MOTION
Frames:	7
Frame Time:	0.03333
0.0 0.0 0.0 0.0 0.0 0.0 0.0 0.0 0.0 0.0 0.0 0.0 0.0 0.0 0.0 0.0 0.0 0.0 0.0 0.0 0.0 0.0 0.0 0.0 0.0 0.0 0.0 0.0 0.0 0.0 0.0 0.0 0.0 0.0 0.0 0.0 0.0 0.0 0.0 0.0 0.0 0.0 0.0 0.0 0.0 0.0 0.0 0.0 0.0 0.0 0.0 0.0 0.0 0.0 0.0 0.0 0.0 0.0 0.0 0.0 0.0 0.0 0.0 0.0 0.0 0.0 0.0 0.0 0.0 0.0 0.0 0.0 0.0 0.0 0.0 0.0 0.0 0.0 0.0 0.0 0.0 0.0 0.0 0.0 0.0 0.0 0.0 0.0 0.0 0.0 0.0 0.0 0.0 0.0 0.0 0.0 0.0 0.0 0.0 0.0 0.0 0.0 0.0 0.0 0.0 0.0 0.0 0.0 0.0 0.0 0.0 0.0 0.0 0.0 0.0 0.0 0.0 0.0 0.0 0.0 0.0 0.0 0.0 0.0 0.0 0.0 0.0 0.0 0.0 0.0 0.0 0.0
0.0646 62.1863 0.0119 179.829696 7.206528 179.256533 -0.357591 -1.199228 170.309931 6.969216 6.830367 -39.611326 -10.670321 -14.564127 -62.318857 18.528788 -30.343514 21.523507 79.052107 20.052516 24.188496 -157.077998 -7.141922 -34.217445 75.820912 13.183404 3.581083 -149.94373 50.988095 157.486074 -0.637055 58.196632 168.606556 48.266501 -58.273156 -35.809091 -173.259644 4.464488 43.59028 -107.280906 64.226007 -99.857022 143.673197 34.914191 -139.474214 45.554402 -75.216519 -171.55215 -32.52821 5.873066 -95.88212 69.9477 70.011998 -87.239088 162.367036 25.076254 -74.447104 -78.826451 -70.383082 -97.620499 -102.060408 21.499091 -76.936019 -148.85166 8.157292 -141.727694 81.094963 -26.096995 -165.092984 10.64722 61.950558 -23.705445 7.225122 72.814815 -173.058249 -96.534354 -63.96741 -46.364511 171.027583 10.847745 -83.645218 71.945504 21.270236 -21.101549 -11.512958 -39.377365 -37.849162 159.006767 -1.48802 -138.332764 -119.321541 -47.904037 -111.55727 73.392991 51.837677 -30.878228 -8.216172 -2.508154 131.024001 0.417647 -11.412916 0.379155 178.924668 35.915401 26.338753 89.674702 -45.695611 93.156467 53.835288 0.107417 85.651268 -3.763772 52.653821 -160.622845 -5.979724 1.776445 -102.911066 76.176377 2.196272 -90.056088 55.56856 7.016494 90.488816 -6.298789 55.034463 -172.328887 5.371923 -1.823048 72.261108 -67.086296 -23.298825 98.692351
0.0821 63.5871 1.2898 156.884564 -76.511378 -157.034633 -9.817873 14.170934 -89.609477 6.725958 3.528859 82.834473 -18.965754 29.519358 -68.639768 44.997334 -1.894711 30.496404 5.709391 1.073767 21.285818 -21.577029 -2.953482 15.409448 -139.790426 39.758462 147.381808 -76.128518 41.722724 61.303537 34.616037 -13.535446 -65.197536 178.671453 11.420782 146.476837 -8.948623 -0.242428 -1.733682 -7.052505 16.692425 16.099844 -158.68342 -27.129046 131.518502 -144.416501 -10.64304 129.642211 -7.038913 -5.167643 13.611427 1.359435 47.08661 -11.455116 -105.062659 53.958448 115.341364 -17.660307 58.840313 38.301882 -172.999928 8.287285 -122.303234 -51.126685 -9.247296 -45.989819 23.323681 -86.862986 48.239078 -120.662463 44.37003 103.228701 83.730401 25.84644 -73.429822 -72.125013 -74.703179 -60.33367 167.478234 -4.09175 -110.230383 24.593844 -71.49609 33.536036 -5.328941 -22.001392 21.083501 32.314073 35.285065 -41.097732 172.129493 -40.546402 -147.397241 -50.912326 -54.824142 -27.698114 152.996153 47.130578 -177.175783 14.523008 0.960762 8.730049 139.690893 68.10825 -156.568299 105.615749 43.785369 -178.593012 -111.20141 71.431904 -43.580769 128.782028 6.288272 6.3671 -37.19176 60.949333 169.463508 -116.64138 -25.994152 148.132928 -5.419079 -5.716383 6.429034 22.686755 8.043703 -0.0 2.185908 37.888549 22.804604 -64.186686 -12.172223 -5.756659
0.8151 61.607800000000005 2.3964 160.793409 -72.30745 -160.391851 -16.054003 15.383641 3.70495 9.161642 -13.487406 -5.48006 2.441023 34.591199 120.23588 -41.449389 21.935165 -143.228205 -14.825166 -0.250892 1.928265 -9.763875 -2.573231 29.465075 -5.025233 25.305452 4.996872 -117.277781 -3.18279 156.464963 -81.648522 -33.623808 -116.257602 48.673203 -66.605755 32.078119 -72.45336 34.237206 48.255391 -93.326366 15.439998 80.942995 -147.618828 -53.483425 151.735052 -10.405133 81.171213 33.916744 -43.250632 53.333984 30.782504 -85.548816 44.880158 79.794624 -137.222869 38.356577 148.907713 15.557336 1.539359 13.694416 -6.284814 -0.82946 4.954012 -17.968637 -12.302726 -28.798024 -42.814551 -86.833876 -18.93454 -173.241511 12.306742 123.639487 13.283277 -56.179988 -29.336597 3.528421 15.22147 0.13603 75.79252 43.827787 -42.600784 135.999588 -11.943131 -74.434451 -3.214373 -2.444074 10.886665 -164.518706 -22.88276 -85.410996 -34.676163 -58.385649 -15.982926 170.014582 -5.598401 -135.618747 5.168931 -7.681612 -0.459717 71.552622 60.985185 -98.796567 29.341807 -69.386887 26.407155 111.217737 -59.059691 77.548914 -7.910067 -7.460873 9.167175 -49.449331 -47.262634 122.146185 54.364806 -76.130905 75.612201 118.743741 5.359233 -161.800241 -53.774662 27.457657 -28.236082 60.275688 22.549846 -143.997648 2.860945 -49.349598 -31.807054 -16.351818 66.954093 -99.283259
1.7742 59.2128 2.1398 161.618704 -69.728577 -161.939672 -11.990363 12.963135 -115.167745 8.284643 8.165392 112.79555 -12.822761 19.920263 -22.429499 26.755977 -21.71037 0.367857 -4.285526 0.69056 -18.29949 -4.342449 -0.411319 10.81678 -156.92185 -35.417565 174.262633 -38.198709 -4.043711 -20.587125 -172.743069 16.590291 -137.772025 -8.61712 25.219461 -1.369604 -6.238009 15.676134 -2.786072 -161.616513 -39.867334 93.711532 -2.638784 20.037965 -8.537286 2.570691 -21.956404 22.161164 -28.836867 56.751662 28.936399 -166.855357 -5.356732 145.141158 3.154333 -3.699528 14.569129 36.439889 38.315364 -33.618439 -124.387447 64.135384 -175.708722 36.566837 11.076349 9.851804 -13.000436 -61.846265 3.877497 38.285308 -39.532373 90.423634 -20.619672 -31.92807 58.859447 -165.934216 -18.823787 -143.259608 -74.429767 -44.69661 -26.290407 21.946495 -54.931851 49.305603 20.077172 11.377324 -9.507604 -69.780504 -34.633071 -21.459984 3.756652 0.946666 -5.787871 166.93311 -25.623577 -149.592034 148.714599 -0.464073 -179.096735 -8.677919 29.696259 18.916558 95.968152 -55.622796 82.980519 29.954109 -35.881861 34.425121 -5.205319 0.008909 -2.597501 -42.354818 -58.172335 -47.017405 -47.214087 73.282406 -83.315075 120.309577 -19.610058 -148.908707 127.707204 52.677309 35.905902 -111.727929 64.577753 33.893019 37.168168 11.603688 -53.326283 -150.418105 -19.836077 -27.436258
2.8036 58.3404 1.5639 158.211542 -71.673264 -158.972927 -13.499225 11.0751 -180.0 -4.16327 6.78156 176.116546 -13.406284 25.297425 -66.923805 38.80837 -1.372788 37.226397 -5.286104 1.479026 -31.243279 -2.282277 -0.130231 6.530859 -6.074331 26.256333 2.8103 -55.014412 54.659302 118.269115 45.830132 66.404466 -117.243639 166.282017 -18.411882 139.251829 -178.647261 -16.521911 93.946003 -163.755518 -10.992112 114.197627 -159.778569 -17.00212 121.924411 -165.156445 2.220199 133.205689 144.228596 -68.221359 111.85687 -174.890685 -1.231488 149.948387 -132.903394 8.193144 166.280055 -151.168561 -23.564214 177.156527 -55.024152 -66.729716 -72.604703 -15.758908 -14.195199 5.258712 -7.824106 -43.840385 4.168978 -68.428067 13.709519 30.165735 167.612121 -11.341157 -115.949025 -150.893119 -43.298865 -134.4893 171.669983 -11.786006 -88.604812 62.450788 -13.888189 -9.599857 134.202338 17.029255 -107.400864 69.039746 65.174422 -32.083144 158.001582 17.066284 -140.257353 96.028688 60.360512 -78.405445 -2.681646 -15.567466 0.878136 -17.898244 62.730178 7.50981 120.266471 -30.11447 93.226583 20.96723 -14.328082 50.980362 0.215143 1.348443 -9.065951 -42.704525 -61.780611 -39.504273 -10.768889 65.675609 46.269294 -112.466812 1.75974 32.442776 105.895494 42.644583 46.236805 -86.696899 57.42794 87.215533 31.914699 -26.286565 -82.570038 -70.936097 -18.79476 -16.74228
3.7892 58.715700000000005 1.1461000000000001 153.031833 -73.930904 -153.43551 -17.745948 11.137854 101.373765 -7.479627 -7.143157 -108.749223 -3.697217 17.425505 3.325909 -0.689771 -30.518058 -36.474875 -14.057211 3.560005 -28.29462 -7.575991 -0.313892 4.738206 0.050921 -62.212487 -14.746849 37.994001 3.100865 -40.148776 108.054093 -49.239944 39.822435 174.749512 5.307945 144.991163 -177.859965 -11.81346 90.004344 166.303897 -32.591555 116.929086 -13.023533 1.046527 8.035849 131.899666 -64.42877 53.343421 -151.870709 15.736311 131.438172 -0.04376 -7.231279 9.230256 -75.444053 -69.016672 -102.26181 -29.393069 77.487417 66.56962 -5.984957 -0.458176 7.02694 -144.109021 41.837014 -134.028304 -5.890657 -55.739596 9.974549 62.937797 -44.657657 114.456925 -177.06536 24.990269 145.735282 6.067012 39.632391 -2.247391 173.579339 -11.95551 -91.101784 -16.456645 -62.121261 -20.385509 150.388624 -17.039376 -122.046685 168.480481 -52.601306 -125.674653 169.69238 -19.652806 -150.533649 172.788102 -10.459523 -157.071263 136.005453 22.156993 -163.411489 -10.055767 36.934994 -24.092832 14.647491 -0.482403 9.078865 131.051582 36.18468 154.522711 -49.559111 25.280461 -39.337066 72.483162 -54.714453 155.211367 78.464497 -23.212667 141.259483 63.138351 -30.168509 168.219601 -164.618867 74.815273 -0.0 147.112837 82.454191 -146.885211 15.43737 -46.04494 65.727472 -149.310049 8.433412 -157.101271
